<?xml version="1.0" encoding="utf-8"?>
<!-- Generator: Adobe Illustrator 16.0.0, SVG Export Plug-In . SVG Version: 6.00 Build 0)  -->
<!DOCTYPE svg PUBLIC "-//W3C//DTD SVG 1.1//EN" "http://www.w3.org/Graphics/SVG/1.1/DTD/svg11.dtd">
<svg version="1.1" id="Layer_1" xmlns="http://www.w3.org/2000/svg" xmlns:xlink="http://www.w3.org/1999/xlink" x="0px" y="0px"
	 width="560px" height="360px" viewBox="0 0 560 360" enable-background="new 0 0 560 360" xml:space="preserve">
<g id="macbook">
	<path fill="#404040" d="M482.4,33.15H81.75c-8.781,0-15.9,7.119-15.9,15.9V315.6c0,8.781,7.119,15.899,15.9,15.899H482.4
		c8.78,0,15.898-7.118,15.898-15.899V49.05C498.3,40.269,491.182,33.15,482.4,33.15z"/>
	<path fill="#1F1F1F" d="M482.4,34.65H81.75c-7.953,0-14.4,6.447-14.4,14.4V314.1c0,9.609,7.791,17.399,17.4,17.399H479.4
		c9.608,0,17.398-7.79,17.398-17.399V49.05C496.8,41.097,490.353,34.65,482.4,34.65z"/>
	<path fill="#121212" d="M482.4,34.65H81.75c-7.953,0-14.4,6.447-14.4,14.4V309.6c0,3.812,3.089,6.899,6.9,6.899H489.9
		c3.811,0,6.898-3.089,6.898-6.899V49.05C496.8,41.097,490.353,34.65,482.4,34.65z"/>
	
		<image overflow="visible" enable-background="new    " width="1280" height="800" id="screenshot-macbook" xlink:href="screenshot-macbook.png"  transform="matrix(0.3149 0 0 0.3149 80.4399 51.9248)">
	</image>
	<path fill="#CCCCCC" d="M524.85,332.398v0.002H39.15v-0.002c-11.687,0-17.502,0.001-21,0.002c5.774,5.602,21,6.449,21,6.449h485.7
		c0,0,15.228-0.849,21-6.449C542.292,332.399,536.863,332.398,524.85,332.398z"/>
	<path fill="#E6E6E6" d="M546.461,323.39c-0.293-0.293-0.646-0.438-1.061-0.438H18.6c-0.414,0-0.768,0.146-1.061,0.438
		s-0.439,0.646-0.439,1.062v6.45c0,0.828,0.672,1.5,1.5,1.5h526.8c0.828,0,1.5-0.672,1.5-1.5v-6.45
		C546.9,324.036,546.754,323.683,546.461,323.39z"/>
	<path fill="#BDBDBD" d="M246.161,322.95c0.688,3.173,2.01,5.101,5.389,5.101h60.9c3.378,0,4.7-1.928,5.388-5.101H246.161z"/>
	<circle fill="#2B2B2B" cx="282.075" cy="43.125" r="2.025"/>
</g>
<g id="ipad">
	<path fill="#404040" d="M525.045,51.371H361.548c-5.938,0-10.762,4.989-10.762,11.145v249.328c0,6.147,4.823,11.156,10.762,11.156
		h163.497c5.939,0,10.759-5.009,10.759-11.156V62.516C535.804,56.36,530.984,51.371,525.045,51.371z"/>
	<path fill="#121212" d="M525.045,52.606H361.71c-5.368,0-9.722,4.496-9.722,10.059v249.014c0,5.553,4.354,10.06,9.722,10.06
		h163.335c5.364,0,9.72-4.507,9.72-10.06V62.665C534.765,57.103,530.409,52.606,525.045,52.606z"/>
	<path fill="#262626" d="M442.729,304.047c-3.799,0-6.891,3.073-6.891,6.891c0,3.816,3.092,6.925,6.891,6.925
		c3.814,0,6.924-3.108,6.924-6.925C449.652,307.12,446.544,304.047,442.729,304.047z"/>
	
		<image overflow="visible" enable-background="new    " width="1536" height="2048" id="screenshot-ipad" xlink:href="screenshot-ipad.png"  transform="matrix(0.1051 0 0 0.1087 362.7051 76.0293)">
	</image>
	<path fill="#2B2B2B" d="M442.729,62.556c-0.944,0-1.714,0.77-1.714,1.732c0,0.946,0.77,1.714,1.714,1.714
		c0.979,0,1.73-0.769,1.73-1.714C444.46,63.326,443.709,62.556,442.729,62.556z"/>
</g>
<g id="iphone">
	<path fill="#666666" d="M29.372,193.042h-1.419c-0.301,0-0.545,0.245-0.545,0.546v5.455c0,0.303,0.244,0.546,0.545,0.546h1.419
		c0.302,0,0.546-0.243,0.546-0.546v-5.455C29.918,193.287,29.674,193.042,29.372,193.042z"/>
	<path fill="#666666" d="M29.372,177.221h-1.419c-0.301,0-0.545,0.245-0.545,0.546v5.456c0,0.301,0.244,0.545,0.545,0.545h1.419
		c0.302,0,0.546-0.244,0.546-0.545v-5.456C29.918,177.465,29.674,177.221,29.372,177.221z"/>
	<path fill="#666666" d="M29.372,159.216h-1.419c-0.301,0-0.545,0.245-0.545,0.546v7.638c0,0.302,0.244,0.546,0.545,0.546h1.419
		c0.302,0,0.546-0.244,0.546-0.546v-7.638C29.918,159.46,29.674,159.216,29.372,159.216z"/>
	<path fill="#666666" d="M102.808,132.156h-13.64c-0.301,0-0.545,0.244-0.545,0.545v1.418c0,0.301,0.245,0.545,0.545,0.545h13.64
		c0.301,0,0.545-0.244,0.545-0.545v-1.418C103.353,132.4,103.109,132.156,102.808,132.156z"/>
	<path fill="#666666" d="M104.554,133.137H42.029c-7.532,0-13.639,6.107-13.639,13.64v162.584c0,7.53,6.107,13.639,13.639,13.639
		h62.524c7.532,0,13.639-6.107,13.639-13.639V146.777C118.193,139.244,112.085,133.137,104.554,133.137z"/>
	<path fill="#1A1A1A" d="M104.663,135.102H41.92c-6.388,0-11.566,5.178-11.566,11.566v162.803c0,6.388,5.178,11.566,11.566,11.566
		h62.742c6.388,0,11.566-5.18,11.566-11.566V146.668C116.229,140.28,111.05,135.102,104.663,135.102z"/>
	
		<image overflow="visible" enable-background="new    " width="640" height="1136" id="screenshot-iphone" xlink:href="screenshot-iphone.png"  transform="matrix(0.1199 0 0 0.1199 34.9072 160.0449)">
	</image>
	<circle fill="#333333" cx="73.291" cy="309.415" r="8.13"/>
	<circle fill="#333333" cx="73.291" cy="142.358" r="1.691"/>
	<circle fill="#262626" cx="61.071" cy="149.56" r="1.146"/>
	<path fill="#4D4D4D" d="M79.838,148.632H66.745c-0.513,0-0.928,0.415-0.928,0.927c0,0.512,0.415,0.928,0.928,0.928h13.094
		c0.512,0,0.928-0.416,0.928-0.928C80.767,149.047,80.351,148.632,79.838,148.632z"/>
</g>
</svg>
